<svg width="140" height="141" viewBox="0 0 140 141" fill="none" xmlns="http://www.w3.org/2000/svg">
<path opacity="0.4" d="M70 116.906C95.7733 116.906 116.667 96.0128 116.667 70.2395C116.667 44.4662 95.7733 23.5728 70 23.5728C44.2267 23.5728 23.3333 44.4662 23.3333 70.2395C23.3333 96.0128 44.2267 116.906 70 116.906Z" fill="#6E61EC"/>
<path d="M108.098 119.653C109.801 121.363 109.801 124.134 108.086 125.843C107.235 126.695 106.114 127.12 105 127.12C103.88 127.12 102.754 126.689 101.903 125.831L88.9642 112.857C91.7525 111.615 94.3836 110.111 96.8511 108.373L108.098 119.653ZM31.9026 119.648C30.1993 121.357 30.199 124.134 31.914 125.837C32.7657 126.689 33.886 127.115 35.0001 127.115C36.1201 127.115 37.246 126.683 38.0977 125.831L51.0361 112.857C48.2478 111.615 45.6166 110.111 43.1491 108.373L31.9026 119.648ZM125.626 32.4689C127.312 30.7423 127.283 27.9712 125.562 26.2796L113.895 14.8465C112.169 13.1548 109.404 13.1839 107.7 14.9106C106.014 16.6372 106.045 19.4083 107.766 21.0999L119.433 32.533C120.284 33.3672 121.392 33.7813 122.494 33.7813C123.632 33.7813 124.769 33.3439 125.626 32.4689ZM20.592 32.4981L32.2586 20.8315C33.9678 19.1223 33.9678 16.3513 32.2586 14.6421C30.5495 12.9329 27.7784 12.9329 26.0693 14.6421L14.4026 26.3088C12.6934 28.0179 12.6934 30.789 14.4026 32.4981C15.2543 33.3498 16.3744 33.7813 17.4944 33.7813C18.6144 33.7813 19.7403 33.3556 20.592 32.4981Z" fill="#6E61EC"/>
<path d="M81.6667 86.5147C80.5467 86.5147 79.4265 86.0891 78.5748 85.2316L66.9082 73.5649C66.0857 72.7424 65.625 71.6281 65.625 70.4731V47.1397C65.625 44.7247 67.585 42.7647 70 42.7647C72.415 42.7647 74.375 44.7247 74.375 47.1397V68.6587L84.7585 79.0422C86.4677 80.7514 86.4677 83.5224 84.7585 85.2316C83.9068 86.0891 82.7867 86.5147 81.6667 86.5147Z" fill="#6E61EC"/>
</svg>
