<svg width="141" height="141" viewBox="0 0 141 141" fill="none" xmlns="http://www.w3.org/2000/svg">
<path opacity="0.4" d="M44.1084 105.298C44.1084 109.556 45.3918 113.406 47.7834 116.731C32.1501 115.739 17.8584 110.023 17.8584 99.4646V94.3312C23.9834 99.1145 33.0251 102.323 44.1084 103.373V105.298ZM44.2836 81.5562C33.0836 80.5645 23.9834 77.3562 17.8584 72.5146V77.6479C17.8584 87.3896 29.9917 92.9895 44.1084 94.6228V83.4813C44.1084 82.8979 44.1669 82.3143 44.2836 81.731C44.2836 81.6727 44.2833 81.6145 44.3416 81.5562H44.2836V81.5562ZM52.8584 61.3727C37.7501 61.3727 25.5001 57.8727 17.8584 51.8643V55.8313C17.8584 66.3313 31.9168 72.0477 47.4334 73.0394C51.2834 67.4394 58.2251 62.948 67.0917 60.2063C62.7167 60.9647 57.9334 61.3727 52.8584 61.3727ZM74.675 58.3977C78.7583 57.6977 83.1333 57.2897 87.7416 57.2897C87.8 56.823 87.8584 56.3563 87.8584 55.8313V51.8643C84.3584 54.606 79.925 56.8227 74.675 58.3977Z" fill="#6E61EC"/>
<path d="M52.8584 52.6227C72.1884 52.6227 87.8584 44.8139 87.8584 35.1811C87.8584 25.5483 72.1884 17.7395 52.8584 17.7395C33.5284 17.7395 17.8584 25.5483 17.8584 35.1811C17.8584 44.8139 33.5284 52.6227 52.8584 52.6227Z" fill="#6E61EC"/>
<path opacity="0.4" d="M122.858 99.5813V105.298C122.858 116.906 105.358 122.739 87.8584 122.739C70.3584 122.739 52.8584 116.906 52.8584 105.298V99.5813C60.7334 105.823 73.2167 109.673 87.8584 109.673C102.5 109.673 114.983 105.823 122.858 99.5813Z" fill="#6E61EC"/>
<path d="M122.858 83.4813C122.858 93.1063 107.167 100.923 87.8584 100.923C68.5501 100.923 52.8584 93.1063 52.8584 83.4813C52.8584 73.8563 68.5501 66.0397 87.8584 66.0397C107.167 66.0397 122.858 73.8563 122.858 83.4813Z" fill="#6E61EC"/>
</svg>
