<svg width="101" height="101" viewBox="0 0 101 101" fill="none" xmlns="http://www.w3.org/2000/svg">
<path d="M42.6862 44.0884C51.891 44.0884 59.3529 36.6265 59.3529 27.4217C59.3529 18.217 51.891 10.7551 42.6862 10.7551C33.4815 10.7551 26.0196 18.217 26.0196 27.4217C26.0196 36.6265 33.4815 44.0884 42.6862 44.0884Z" fill="#FCFCFC"/>
<path opacity="0.4" d="M65.0653 56.5049C61.607 54.0049 56.9819 52.4217 50.9819 52.4217H34.3153C17.3986 52.4217 11.3986 64.7968 11.3986 75.4218C11.3986 84.9218 16.4403 89.9217 25.9819 89.9217H55.2737C55.9404 89.9217 56.4817 89.4632 56.4817 88.7132C56.4817 88.4632 56.2319 87.9633 56.1486 87.7967L53.9818 84.0883C53.0235 82.4633 52.815 80.5053 53.3567 78.7136C53.6484 77.7969 54.1071 76.9215 54.7737 76.2132C54.8154 76.1715 55.1486 75.805 55.1486 75.3384C55.1486 75.005 54.9821 74.6719 54.7737 74.4635C53.6904 73.2135 53.0653 71.6299 53.0653 69.9632C53.0653 68.6299 53.4822 67.5466 53.8155 66.8799C53.8988 66.7132 53.9402 66.5883 54.0235 66.4633L57.1902 61.255C58.3986 59.0883 60.6905 57.7551 63.1488 57.7551C63.6488 57.7551 64.107 57.7965 64.5653 57.9215C64.6486 57.9215 64.7318 57.9632 64.8568 57.9632C65.3568 57.9632 65.6069 57.6301 65.5653 57.2135C65.5653 56.8801 65.232 56.6299 65.0653 56.5049Z" fill="#FCFCFC"/>
<path d="M89.2322 75.3384C89.2322 73.3384 90.3152 71.5049 92.1069 70.5049L92.6486 70.2134L88.8151 63.7966L88.2734 64.0886C87.3984 64.5886 86.3986 64.8383 85.3986 64.8383C84.3986 64.8383 83.3984 64.5886 82.5234 64.0886C80.7734 63.0886 79.6903 61.2551 79.6903 59.2968C79.6903 58.9635 79.3985 58.6717 79.0235 58.6717H72.6901C72.3151 58.6717 72.0655 58.9635 72.0655 59.2968C72.0655 61.2551 70.9819 63.0886 69.1902 64.0886C68.3152 64.5886 67.3155 64.8383 66.3155 64.8383C65.3155 64.8383 64.3152 64.5886 63.4402 64.0886C63.1486 63.9219 62.7738 64.0466 62.6071 64.3383L59.3987 69.6718C59.357 69.7551 59.3153 69.8799 59.3153 69.9632C59.3153 70.1715 59.4401 70.3799 59.6484 70.5049C61.3984 71.5049 62.482 73.3384 62.482 75.3384V75.4635C62.482 77.3801 61.3567 79.1718 59.6484 80.1718C59.3151 80.3385 59.232 80.7133 59.3987 81.005L62.5654 86.3384C62.6904 86.5468 62.9404 86.6716 63.1488 86.6716C63.2738 86.6716 63.3569 86.6298 63.4402 86.5882C65.2319 85.5882 67.4402 85.5882 69.1902 86.5882C70.8986 87.5882 72.0238 89.3381 72.0238 91.2548V91.3799C72.0238 91.7133 72.3151 92.005 72.6901 92.005H79.0652C79.3986 92.005 79.6903 91.7133 79.6903 91.3799C79.6903 89.4216 80.7734 87.5882 82.5234 86.5882C83.3984 86.0882 84.3986 85.8384 85.3986 85.8384C86.3986 85.8384 87.3984 86.0882 88.2734 86.5882C88.5651 86.7548 88.9821 86.6301 89.1487 86.3384L92.3154 81.005C92.3988 80.9216 92.3984 80.7968 92.3984 80.6718C92.3984 80.4635 92.3152 80.2968 92.1069 80.1718C90.3152 79.1718 89.2322 77.3384 89.2322 75.3384ZM76.0653 80.0884C73.4403 80.0884 71.2736 77.9634 71.2736 75.3384C71.2736 72.7134 73.3986 70.5883 76.0236 70.5883H76.0653C78.6903 70.5883 80.8571 72.7134 80.8571 75.3384C80.8571 77.9634 78.6903 80.0884 76.0653 80.0884Z" fill="#FCFCFC"/>
</svg>
