<svg width="51" height="51" viewBox="0 0 51 51" fill="none" xmlns="http://www.w3.org/2000/svg">
<path d="M26.8739 33.3545V26.0507H29.3319L29.6969 23.1912H26.8739V21.37C26.8739 20.5451 27.1029 19.9798 28.2849 19.9798H29.7849V17.431C29.0556 17.3526 28.3225 17.3148 27.5889 17.3177C27.09 17.2812 26.5891 17.3545 26.1214 17.5325C25.6537 17.7104 25.2304 17.9886 24.8813 18.3478C24.5321 18.7069 24.2655 19.1382 24.1002 19.6114C23.9348 20.0846 23.8747 20.5884 23.9239 21.0874V23.1862H21.4819V26.0457H23.9289V33.3545H26.8739Z" fill="#16110D"/>
<path d="M25.4819 49.7027C39.0129 49.7027 49.9819 38.7085 49.9819 25.1464C49.9819 11.5843 39.0129 0.590088 25.4819 0.590088C11.951 0.590088 0.981934 11.5843 0.981934 25.1464C0.981934 38.7085 11.951 49.7027 25.4819 49.7027Z" stroke="#16110D"/>
</svg>
