<svg width="154" height="184" viewBox="0 0 154 184" fill="none" xmlns="http://www.w3.org/2000/svg">
<path d="M150.785 114.67C150.785 74.3098 120.515 24.6698 84.7947 8.57731C71.5377 2.61167 60.5639 2.0593 51.3577 7.06749L50.2529 7.61986H50.2161C50.2161 7.61986 50.0688 7.73034 49.9952 7.76716L20.9771 24.8171C19.6514 25.5904 19.2831 27.358 20.2038 28.6101L32.3928 45.1077C31.9877 73.9784 47.3069 107.821 69.1809 130.799V155.067C69.1809 159.596 73.8209 164.641 76.7301 163.316L96.2473 154.478L103.318 167.072C104.091 168.471 105.859 168.95 107.221 168.14L133.22 153.042C144.083 146.892 150.822 133.635 150.822 114.596L150.785 114.67Z" fill="white"/>
<path d="M147.986 128.959C147.986 88.5984 117.716 38.9584 81.996 22.8659C68.7391 16.9002 57.7652 16.3479 48.559 21.3561L47.4542 21.9084H47.4174C47.4174 21.9084 47.2701 22.0189 47.1964 22.0557L18.1784 39.1057C16.8527 39.879 16.4844 41.6466 17.4051 42.8987L29.5941 59.3962C29.189 88.267 44.5082 122.109 66.3823 145.088V169.356C66.3823 173.885 82.3274 163.869 85.2366 162.543L93.4486 168.766L101.219 161.401L119.447 161.07V150.354C130.31 144.241 148.023 147.923 148.023 128.885L147.986 128.959Z" fill="#000428"/>
<path d="M105.785 171.381C105.269 171.381 104.791 171.307 104.275 171.196C102.802 170.791 101.587 169.834 100.85 168.508L95.0321 158.124L77.8349 165.93C76.0304 166.741 73.9314 166.483 71.906 165.194C69.1442 163.39 66.3455 159.376 66.3455 155.141V131.978C43.8086 107.931 29.4837 74.4205 29.5574 46.0653L17.9207 30.3042C17 29.089 16.6686 27.5055 16.9632 25.9957C17.2578 24.4859 18.2153 23.197 19.5041 22.4237L50.0688 4.56358C59.9379 -0.849691 71.6851 -0.370967 85.8995 5.99975C121.951 22.2027 153.547 72.9475 153.547 114.633C153.547 133.267 147.324 147.371 135.945 154.588L134.545 155.472L108.547 170.57C107.663 171.086 106.706 171.344 105.711 171.344L105.785 171.381ZM97.4257 150.943L105.748 165.783L131.857 150.611C142.278 144.719 148.023 131.978 148.023 114.67C148.023 74.936 117.937 26.5481 83.6532 11.1184C71.1327 5.4842 61.0427 4.96865 52.7202 9.53494L51.5418 10.1241L22.3765 27.2477L35.1916 44.224V45.1815C34.7865 72.2478 49.2587 105.906 71.2064 128.921L71.9797 129.732V155.104C71.9797 157.939 74.7415 160.775 75.7358 160.812L97.4626 150.943H97.4257Z" fill="#000428"/>
<path d="M122.209 131.278C122.209 90.9177 91.9388 41.2776 56.2186 25.1851C29.5942 13.217 7.75697 25.2588 4.2586 53.9086C0.576105 84.2892 16.6686 122.366 40.568 147.444V171.712C40.568 176.241 45.2079 181.286 48.1171 179.96L71.2431 169.465C100.04 181.433 122.209 165.746 122.209 131.241V131.278Z" fill="#6E61EC"/>
<path d="M47.1228 183.017C45.9076 183.017 44.6187 182.612 43.3667 181.802C40.6048 179.998 37.8061 175.984 37.8061 171.749V148.586C12.8388 121.888 -2.0753 83.0008 1.49672 53.6145C3.30114 38.995 9.856 27.7634 19.9829 22.0555C30.257 16.274 43.5508 16.4581 57.3602 22.6816C93.4118 38.8845 125.008 89.6293 125.008 131.315C125.008 149.543 118.968 163.611 107.994 170.939C98.199 177.457 85.1998 178.046 71.3168 172.559L49.2955 182.539C48.5958 182.833 47.8593 183.017 47.1228 183.017ZM36.6645 23.4181C31.5459 23.4181 26.7955 24.5596 22.7079 26.8796C14.1645 31.7037 8.60393 41.4255 7.02046 54.2405C3.59574 82.4116 18.2152 119.936 42.5933 145.53L43.3667 146.34V171.712C43.3667 174.548 46.1286 177.383 47.1228 177.383L71.2063 166.446L72.3111 166.925C84.8684 172.154 96.4314 171.896 104.901 166.262C114.255 160.002 119.41 147.592 119.41 131.278C119.41 91.5442 89.3242 43.1562 55.0402 27.7266C48.5958 24.8542 42.3724 23.3812 36.6277 23.3812L36.6645 23.4181Z" fill="#000428"/>
<path d="M117.09 100.419L145.851 83.6636L150.785 98.5409V123.655L147.986 136.986L126.923 157.719L109.983 165.783L122.209 141V114.67L117.09 100.419Z" fill="#000428"/>
<path d="M39.5369 84.1052C38.9109 66.4661 61.9265 75.2304 67.9658 93.6061C74.0419 81.8589 97.2785 95.7051 96.4683 115.112C95.9159 129.068 70.9118 139.895 68.0763 141.073C68.0763 141.073 67.9658 141.184 67.929 141.147C67.8922 141.147 67.7817 140.926 67.7817 140.926C64.983 136.691 40.0157 98.6511 39.4633 84.1052H39.5369Z" fill="white"/>
<path d="M60.4535 133.377L59.9011 133.156H59.0173L57.9126 131.462C53.4199 124.76 29.9624 88.635 29.4469 73.7946C29.1155 64.2569 34.897 62.2684 37.4011 61.8633C44.8397 60.6481 55.8135 67.387 61.19 78.5082C63.8046 76.5564 67.3397 75.9672 71.3168 76.9247C81.4805 79.3551 92.0125 91.1759 91.4601 104.838C90.8709 119.384 68.1867 130.063 62.1843 132.641L61.7792 133.156L60.4903 133.377H60.4535ZM34.4919 73.6473C34.897 84.5475 51.1 112.019 61.3741 127.706C71.28 123.25 86.01 114.192 86.3782 104.654C86.8569 92.4648 77.0247 83.2586 70.0648 81.6015C66.4928 80.7545 64.0255 81.6751 62.663 84.2897L59.8643 89.703L57.9862 83.9583C54.1196 72.2479 43.5508 65.7667 38.2481 66.6137C34.9338 67.1661 34.3814 70.7381 34.4919 73.6473Z" fill="#000428"/>
</svg>
