<svg width="126" height="144" viewBox="0 0 126 144" fill="none" xmlns="http://www.w3.org/2000/svg">
<path d="M100.117 32.1187C90.7657 26.4625 82.4197 28.1719 79.3779 33.0237C78.8248 33.9036 77.4422 33.1494 76.8389 31.6159C73.6965 23.5464 65.6019 11.2787 56.376 5.72307C50.3175 2.07796 44.8122 1.52491 40.6391 3.536L40.1364 3.7874C39.9353 3.91309 37.9744 5.01919 37.7733 5.14488L11.981 19.9767C11.981 19.9767 32.268 88.178 32.8461 91.1947C33.3992 94.2113 57.8089 135.062 57.8089 135.062L84.4056 119.777C84.7073 119.652 85.009 119.476 85.2855 119.275L115.05 96.7252C120.53 92.5522 123.547 84.7089 123.547 74.7037C123.547 58.992 113.064 39.9368 100.117 32.1187Z" fill="white"/>
<path d="M100.293 39.6099C90.9417 33.9537 82.5956 35.6631 79.5539 40.5149C79.0008 41.3948 77.6182 40.6406 77.0148 39.1072C73.8725 31.0376 65.7778 18.7699 56.5519 13.2143C50.4935 9.56917 44.9881 9.01611 40.8151 11.0272L40.3123 11.2786C40.1112 11.4043 38.1504 12.5104 37.9493 12.6361L12.157 27.4679C12.157 27.4679 32.4691 95.6692 33.0221 98.6859C33.5752 101.703 54.566 134.157 54.566 134.157L81.1627 118.872C81.4644 118.747 81.7661 118.571 82.0426 118.37L111.807 95.8201C117.287 91.6471 123.723 92.2001 123.723 82.1949C123.723 66.4832 113.24 47.4281 100.293 39.6099Z" fill="#16110D"/>
<path d="M36.9186 3.5614C37.0694 3.46084 39.1056 2.30445 39.3319 2.17876L41.1167 1.14807C45.7674 -0.485943 51.499 0.670444 57.2558 4.13959C66.5068 9.72038 74.9283 21.8372 78.4729 30.9374C78.498 31.0129 78.5483 31.0883 78.5734 31.1386C82.3945 26.3622 91.1679 24.6025 101.022 30.5352C114.421 38.6299 125.331 58.414 125.331 74.6788C125.331 85.2873 122.063 93.6334 116.131 98.1584L86.3413 120.708C85.9893 120.984 85.5871 121.211 85.1095 121.412L57.2307 137.45L56.3508 135.992C50.594 126.339 31.7149 94.6138 31.1367 91.4966C30.7345 89.3598 18.4668 47.8558 10.3218 20.4797L9.89447 19.072L36.9437 3.53625L36.9186 3.5614ZM34.5304 90.843C35.2091 93.2814 49.1863 117.163 58.387 132.649L83.5257 118.194C83.9028 118.018 84.0788 117.917 84.2296 117.792L113.994 95.2423C118.996 91.4212 121.762 84.1058 121.762 74.7039C121.762 59.5956 111.656 41.2192 99.2123 33.7027C90.64 28.5241 83.3246 30.0073 80.8108 34.0295C80.6096 34.3563 80.308 34.6077 80.0063 34.8088L90.5143 50.1686L72.8669 69.1986L42.6753 75.433C42.6753 75.433 31.0613 54.0399 31.0613 49.7161C31.0613 45.3922 35.913 27.2169 35.913 27.2169L61.1523 11.7566C59.3172 10.022 57.4066 8.48858 55.4709 7.3322C50.1667 4.13959 45.1389 3.38542 41.343 5.22055L40.9408 5.42166C40.7145 5.54735 38.8794 6.60317 38.628 6.754L14.0172 20.9071C17.4361 32.3955 33.9774 88.0275 34.5053 90.8933L34.5304 90.843Z" fill="#000428"/>
<path d="M99.9916 32.5209C93.7321 28.725 87.9502 28.2976 83.8777 29.8562L83.8274 29.8059L83.4504 30.0322C82.6459 30.3841 81.9169 30.7863 81.2633 31.2891L57.0547 45.3668L44.5105 86.4434L57.0547 133.176C57.3564 134.358 58.6384 134.911 59.6691 134.333L84.2799 120.18C84.5816 120.054 84.8833 119.878 85.1849 119.677L114.949 97.1274C120.429 92.9544 123.446 85.1111 123.446 75.1059C123.446 59.3942 112.963 40.339 100.017 32.5209H99.9916Z" fill="white"/>
<path d="M99.9916 40.515C93.7321 36.7191 87.9502 36.2917 83.8777 37.8503L83.8274 37.8001L83.4504 38.0263C82.6459 38.3783 81.9169 38.7805 81.2633 39.2832L57.0547 53.3609L44.5105 94.4376L53.6107 132.774C53.9124 133.956 55.1944 134.509 56.2251 133.93L80.8359 119.777C81.1376 119.652 81.4393 119.476 81.7409 119.275L111.505 96.7252C116.985 92.5522 123.421 93.1052 123.421 83.1C123.421 67.3883 112.938 48.3332 99.9916 40.515Z" fill="#16110D"/>
<path d="M55.5966 44.1355L80.4085 29.7059C80.9616 29.2534 81.8163 28.7506 82.7715 28.3484L84.0788 27.5943L84.305 27.8205C89.1819 26.3876 95.1398 27.5188 100.846 30.9628C114.245 39.0575 125.155 58.8417 125.155 75.1064C125.155 85.715 121.887 94.061 115.955 98.586L86.1653 121.135C85.8133 121.412 85.4111 121.638 84.9335 121.839L60.4986 135.917C60.0713 136.168 59.6188 136.269 59.1412 136.319L58.8144 136.545L58.7641 136.369C58.3116 136.369 57.8591 136.269 57.4066 136.093C56.401 135.64 55.6469 134.786 55.3704 133.68L42.7004 86.4188L55.5966 44.1355ZM99.1117 34.1052C93.8829 30.9377 88.5535 30.0327 84.4558 31.5662L84.1542 31.6919C83.3497 32.0438 82.7967 32.3958 82.2939 32.7728L58.4876 46.6243L46.3204 86.4943L55.7474 121.613L69.3978 109.823L88.3021 66.1319L114.446 50.7973C110.424 43.8087 105.019 37.7252 99.0866 34.1555L99.1117 34.1052Z" fill="#000428"/>
<path d="M87.5731 112.513C93.0533 108.34 96.07 100.496 96.07 90.4911C96.07 74.7794 85.5871 55.7242 72.6407 47.9061C63.2891 42.2499 54.943 43.9593 51.9012 48.8111C51.3482 49.691 49.9656 48.9368 49.3622 47.4033C46.2199 39.3338 38.1252 27.0661 28.8993 21.5105C15.9026 13.6672 5.34436 20.0273 5.34436 35.7138C5.34436 45.719 8.38614 57.2074 13.8664 68.0171L43.6306 126.49C47.4014 133.906 54.038 137.903 57.8088 135.037L87.5731 112.487V112.513Z" fill="white"/>
<path d="M71.1072 123.146C75.783 119.551 78.3723 112.864 78.3723 104.292C78.3723 90.8427 69.3978 74.5277 58.3116 67.8408C50.2924 63.0142 43.153 64.4722 40.5386 68.6201C40.0609 69.3743 38.8794 68.7207 38.3766 67.4135C35.6868 60.5003 28.7485 49.9923 20.855 45.2411C9.71851 38.5291 0.693718 43.959 0.693718 57.4083H0.668579C0.668579 65.9806 3.25787 75.8098 7.98394 85.0608L33.4746 135.137C36.6923 141.472 42.3737 144.916 45.6166 142.478L71.1072 123.171V123.146Z" fill="#6E61EC"/>
<path d="M54.9681 137.802C54.3648 137.802 53.7112 137.726 53.0576 137.576C49.0102 136.595 44.8121 132.673 42.0971 127.369L12.3329 68.8966C6.70179 57.8356 3.58459 46.0455 3.58459 35.7386C3.58459 27.468 6.34985 21.2336 11.3525 18.2169C16.3551 15.2003 22.8911 15.8036 29.754 19.9515C39.005 25.5323 47.4265 37.6492 50.9711 46.7494C50.9962 46.8248 51.0465 46.9002 51.0716 46.9505C54.8927 42.1741 63.6661 40.4144 73.5205 46.3472C86.9194 54.4418 97.8296 74.2511 97.8296 90.4907C97.8296 101.099 94.5616 109.445 88.6288 113.97L58.8646 136.52C57.7585 137.374 56.4513 137.802 55.0184 137.802H54.9681ZM18.3913 19.9767C16.4556 19.9767 14.6708 20.4543 13.1122 21.3844C9.21567 23.7223 7.07888 28.8255 7.07888 35.7386C7.07888 45.4673 10.0452 56.6289 15.3998 67.1872L45.164 125.66C47.3762 130.009 50.7699 133.302 53.8369 134.031C55.0184 134.307 56.0239 134.182 56.7781 133.604L86.5423 111.054C91.5449 107.208 94.3102 99.9178 94.3102 90.5159C94.3102 75.4075 84.2044 57.0311 71.7608 49.5146C63.1885 44.3361 55.8731 45.8193 53.3592 49.8414C52.8313 50.671 51.9263 51.0984 50.9711 51.023C49.6387 50.8973 48.3818 49.7409 47.7533 48.132C44.5355 39.8362 36.5163 28.2473 28.0446 23.119C24.6006 21.0325 21.3074 20.0018 18.3913 20.0018V19.9767Z" fill="#000428"/>
</svg>
