<svg width="51" height="51" viewBox="0 0 51 51" fill="none" xmlns="http://www.w3.org/2000/svg">
<path d="M25.4819 49.7027C39.0129 49.7027 49.9819 38.7085 49.9819 25.1464C49.9819 11.5843 39.0129 0.590088 25.4819 0.590088C11.951 0.590088 0.981934 11.5843 0.981934 25.1464C0.981934 38.7085 11.951 49.7027 25.4819 49.7027Z" stroke="#16110D"/>
<path d="M29.8234 15.3315H21.4434C17.8034 15.3315 15.6334 17.5015 15.6334 21.1415V29.5115C15.6334 33.1615 17.8034 35.3315 21.4434 35.3315H29.8134C33.4534 35.3315 35.6234 33.1615 35.6234 29.5215V21.1415C35.6334 17.5015 33.4634 15.3315 29.8234 15.3315ZM25.6334 29.2115C23.4934 29.2115 21.7534 27.4715 21.7534 25.3315C21.7534 23.1915 23.4934 21.4515 25.6334 21.4515C27.7734 21.4515 29.5134 23.1915 29.5134 25.3315C29.5134 27.4715 27.7734 29.2115 25.6334 29.2115ZM31.5534 20.2115C31.5034 20.3315 31.4334 20.4415 31.3434 20.5415C31.2434 20.6315 31.1334 20.7015 31.0134 20.7515C30.8934 20.8015 30.7634 20.8315 30.6334 20.8315C30.3634 20.8315 30.1134 20.7315 29.9234 20.5415C29.8334 20.4415 29.7634 20.3315 29.7134 20.2115C29.6634 20.0915 29.6334 19.9615 29.6334 19.8315C29.6334 19.7015 29.6634 19.5715 29.7134 19.4515C29.7634 19.3215 29.8334 19.2215 29.9234 19.1215C30.1534 18.8915 30.5034 18.7815 30.8234 18.8515C30.8934 18.8615 30.9534 18.8815 31.0134 18.9115C31.0734 18.9315 31.1334 18.9615 31.1934 19.0015C31.2434 19.0315 31.2934 19.0815 31.3434 19.1215C31.4334 19.2215 31.5034 19.3215 31.5534 19.4515C31.6034 19.5715 31.6334 19.7015 31.6334 19.8315C31.6334 19.9615 31.6034 20.0915 31.5534 20.2115Z" fill="#16110D"/>
</svg>
