<svg width="19" height="19" viewBox="0 0 19 19" fill="none" xmlns="http://www.w3.org/2000/svg">
<path d="M18.4819 8.30859V18.3086L16.4819 16.3086H8.48193C7.15193 16.3086 6.48193 15.6386 6.48193 14.3086C6.48193 14.3086 6.48193 14.0286 6.48193 13.7876C6.48193 13.5746 6.64287 13.4786 6.78687 13.4786C6.88687 13.4786 12.1519 13.4786 12.1519 13.4786C14.5519 13.4786 15.9819 12.0385 15.9819 9.63855C15.9819 9.63855 15.9819 6.84164 15.9819 6.60864C15.9819 6.37564 16.185 6.30859 16.28 6.30859C16.375 6.30859 16.4819 6.30859 16.4819 6.30859C17.8119 6.30859 18.4819 6.97859 18.4819 8.30859ZM0.481934 14.3086V2.6416C0.481934 1.0856 1.25994 0.308594 2.81494 0.308594H12.1479C13.7029 0.308594 14.481 1.0866 14.481 2.6416V9.6416C14.481 11.1976 13.7029 11.9746 12.1479 11.9746H2.81494L0.481934 14.3086Z" fill="#25314C"/>
</svg>
