<svg width="19" height="19" viewBox="0 0 19 19" fill="none" xmlns="http://www.w3.org/2000/svg">
<path d="M15.1068 11.4826L17.7499 13.0586C18.2959 13.3846 18.5778 14.0186 18.4528 14.6426C17.9418 17.2016 15.3719 18.8416 12.8549 18.1506C6.91589 16.5206 2.27678 11.8956 0.640776 5.94359C-0.0512244 3.42559 1.58688 0.853571 4.14688 0.341571L4.16372 0.338581C4.78872 0.213581 5.42588 0.496581 5.75088 1.04558L7.31387 3.68459C7.86987 4.62359 7.59372 5.83257 6.68472 6.43657L5.02383 7.54158C6.19583 10.3486 8.43577 12.5976 11.2348 13.7676L12.3498 12.1026C12.9588 11.1956 14.1688 10.9236 15.1068 11.4826Z" fill="#25314C"/>
</svg>
