<svg width="101" height="101" viewBox="0 0 101 101" fill="none" xmlns="http://www.w3.org/2000/svg">
<path opacity="0.4" d="M93.4053 57.255C92.7803 50.38 90.9465 43.0466 77.5715 43.0466H24.405C11.03 43.0466 9.23837 50.38 8.57171 57.255L6.23837 82.63C5.94671 85.7966 6.98837 88.9633 9.15504 91.3383C11.3634 93.755 14.4884 95.13 17.8217 95.13H25.655C32.405 95.13 33.6967 91.255 34.53 88.7133L35.3634 86.2133C36.3217 83.3383 36.5717 82.63 40.3217 82.63H61.6553C65.4053 82.63 65.5303 83.0466 66.6136 86.2133L67.4469 88.7133C68.2803 91.255 69.5719 95.13 76.3219 95.13H84.1548C87.4465 95.13 90.6136 93.755 92.8219 91.3383C94.9886 88.9633 96.0303 85.7966 95.7386 82.63L93.4053 57.255Z" fill="#FCFCFC"/>
<path d="M88.4819 30.5388H84.3153C84.2736 30.5388 84.2736 30.5388 84.2319 30.5388L82.6486 22.9972C81.1486 15.7055 78.0236 8.99713 65.6069 8.99713H54.1069H47.8569H36.3569C23.9403 8.99713 20.8153 15.7055 19.3153 22.9972L17.7319 30.5388C17.6903 30.5388 17.6903 30.5388 17.6486 30.5388H13.4819C11.7736 30.5388 10.3569 31.9555 10.3569 33.6638C10.3569 35.3722 11.7736 36.7888 13.4819 36.7888H16.4403L14.6903 45.1221C16.9403 43.8304 20.0653 43.0387 24.3986 43.0387H77.5653C81.8986 43.0387 85.0236 43.8304 87.2736 45.1221L85.5236 36.7888H88.4819C90.1903 36.7888 91.6069 35.3722 91.6069 33.6638C91.6069 31.9555 90.1903 30.5388 88.4819 30.5388ZM38.4819 65.9633H25.9819C24.2736 65.9633 22.8569 64.5466 22.8569 62.8383C22.8569 61.13 24.2736 59.7133 25.9819 59.7133H38.4819C40.1903 59.7133 41.6069 61.13 41.6069 62.8383C41.6069 64.5466 40.1903 65.9633 38.4819 65.9633ZM75.9819 65.9633H63.4819C61.7736 65.9633 60.3569 64.5466 60.3569 62.8383C60.3569 61.13 61.7736 59.7133 63.4819 59.7133H75.9819C77.6903 59.7133 79.1069 61.13 79.1069 62.8383C79.1069 64.5466 77.6903 65.9633 75.9819 65.9633Z" fill="#FCFCFC"/>
</svg>
