<svg width="101" height="101" viewBox="0 0 101 101" fill="none" xmlns="http://www.w3.org/2000/svg">
<path opacity="0.4" d="M35.107 75.6259L35.0945 75.6175C31.2112 73.3675 26.4194 73.3592 22.5319 75.6008C21.8694 75.9842 21.0195 75.755 20.6362 75.0967L13.6695 63.0759C13.2862 62.4134 13.511 61.5675 14.1735 61.1842L14.2111 61.1634C18.0777 58.9217 20.4569 54.7842 20.4444 50.3175C20.4319 45.855 18.0528 41.7383 14.1903 39.5008L14.1695 39.4884C13.5111 39.105 13.2861 38.2634 13.6653 37.6093L20.6362 25.5759C21.0195 24.9176 21.8612 24.6926 22.5237 25.0717C26.4153 27.3134 31.207 27.3093 35.0945 25.0551L35.107 25.0509C38.9611 22.8176 41.3361 18.6968 41.3361 14.2426C41.3361 13.4676 41.9653 12.8426 42.7403 12.8426H59.2194C59.9944 12.8426 60.6236 13.4718 60.6236 14.2426C60.6236 18.6968 62.9986 22.8176 66.8527 25.0509L66.8653 25.0551C70.7528 27.3093 75.5445 27.3134 79.4361 25.0717C80.0986 24.6926 80.9403 24.9176 81.3237 25.5759L88.2903 37.6009C88.6736 38.2634 88.4486 39.1092 87.7861 39.4926L87.7528 39.5092C83.8903 41.7467 81.5111 45.8801 81.5195 50.3426C81.5278 54.8093 83.9069 58.9384 87.7736 61.18L87.7903 61.1884C88.4487 61.5717 88.6736 62.4134 88.2903 63.0675L81.3195 75.1009C80.9361 75.7592 80.0945 75.9842 79.432 75.605C75.5403 73.3634 70.7445 73.3675 66.8611 75.6217L66.8527 75.6259C62.9944 77.8634 60.6236 81.9801 60.6236 86.4384C60.6236 87.2092 59.9944 87.8342 59.2236 87.8342H42.7278C41.9528 87.8342 41.3237 87.2092 41.3278 86.4342C41.332 81.9842 38.9611 77.8634 35.107 75.6259Z" fill="#FCFCFC"/>
<path d="M50.9861 62.8384C57.8897 62.8384 63.4861 57.2419 63.4861 50.3384C63.4861 43.4348 57.8897 37.8384 50.9861 37.8384C44.0826 37.8384 38.4861 43.4348 38.4861 50.3384C38.4861 57.2419 44.0826 62.8384 50.9861 62.8384Z" fill="#FCFCFC"/>
</svg>
