<svg width="141" height="141" viewBox="0 0 141 141" fill="none" xmlns="http://www.w3.org/2000/svg">
<path opacity="0.4" d="M122.937 29.6619C93.7703 23.8286 83.3991 18.6427 70.5424 12.1619C57.4757 18.6427 47.1037 23.8286 17.937 29.6619C17.937 36.2944 17.937 57.0897 17.937 64.0139C17.937 102.905 50.9945 122.348 70.437 128.829C89.8795 122.348 122.937 102.905 122.937 64.0139C122.937 56.8681 122.937 36.6269 122.937 29.6619Z" fill="#6E61EC"/>
<path d="M64.6736 86.5371C63.5536 86.5371 62.4334 86.1114 61.5818 85.2539L49.9151 73.5872C48.2059 71.8781 48.2059 69.107 49.9151 67.3979C51.6243 65.6887 54.3953 65.6887 56.1045 67.3979L64.6793 75.9727L84.9208 55.7312C86.63 54.022 89.401 54.022 91.1102 55.7312C92.8193 57.4404 92.8193 60.2114 91.1102 61.9206L67.7768 85.2539C66.9135 86.1114 65.7936 86.5371 64.6736 86.5371Z" fill="#6E61EC"/>
</svg>
