<svg width="19" height="18" viewBox="0 0 19 18" fill="none" xmlns="http://www.w3.org/2000/svg">
<path d="M10.462 1.388L12.404 5.30499C12.55 5.59999 12.832 5.80401 13.159 5.85101L17.6419 6.49896C18.4639 6.61796 18.792 7.62598 18.197 8.20398L14.956 11.349C14.719 11.579 14.611 11.91 14.667 12.235L15.4079 16.539C15.5579 17.412 14.6409 18.078 13.8549 17.667L9.967 15.632C9.675 15.479 9.32697 15.479 9.03597 15.632L5.15096 17.665C4.36396 18.077 3.44393 17.41 3.59493 16.535L4.33602 12.235C4.39202 11.91 4.28396 11.579 4.04696 11.349L0.805988 8.20398C0.209988 7.62598 0.53792 6.61796 1.36092 6.49896L5.84395 5.85101C6.16995 5.80401 6.45196 5.59999 6.59896 5.30499L8.54097 1.388C8.93197 0.592998 10.068 0.592998 10.462 1.388Z" fill="#F0D760"/>
</svg>
