<svg width="41" height="41" viewBox="0 0 41 41" fill="none" xmlns="http://www.w3.org/2000/svg">
<mask id="mask0_282_492" style="mask-type:alpha" maskUnits="userSpaceOnUse" x="0" y="0" width="41" height="41">
<rect x="0.481934" y="0.621094" width="40" height="40" fill="#D9D9D9"/>
</mask>
<g mask="url(#mask0_282_492)">
<path d="M20.5718 20.6211C21.5607 20.6211 22.5274 20.3279 23.3496 19.7784C24.1719 19.229 24.8127 18.4481 25.1912 17.5345C25.5696 16.6209 25.6686 15.6155 25.4757 14.6456C25.2828 13.6757 24.8066 12.7848 24.1073 12.0856C23.408 11.3863 22.5171 10.9101 21.5472 10.7172C20.5773 10.5242 19.572 10.6233 18.6584 11.0017C17.7447 11.3801 16.9638 12.021 16.4144 12.8432C15.865 13.6655 15.5718 14.6322 15.5718 15.6211C15.5718 16.9472 16.0986 18.2189 17.0362 19.1566C17.9739 20.0943 19.2457 20.6211 20.5718 20.6211Z" fill="#FAFAFA"/>
<path d="M20.5719 23.1211C15.5619 23.1211 11.4819 26.4811 11.4819 30.6211C11.4819 30.7537 11.5346 30.8809 11.6284 30.9746C11.7221 31.0684 11.8493 31.1211 11.9819 31.1211H29.1619C29.2945 31.1211 29.4217 31.0684 29.5155 30.9746C29.6093 30.8809 29.6619 30.7537 29.6619 30.6211C29.6619 26.4811 25.5819 23.1211 20.5719 23.1211Z" fill="#FAFAFA"/>
</g>
</svg>
